<?xml version="1.0" encoding="UTF-8"?><svg id="OBJECTS" xmlns="http://www.w3.org/2000/svg" xmlns:xlink="http://www.w3.org/1999/xlink" viewBox="0 0 63.21 63.19"><defs><style>.cls-1{fill:url(#Adsız_degrade_15);}.cls-2{fill:url(#Adsız_degrade_13);}.cls-3{fill:url(#Adsız_degrade_12);}.cls-4{fill:url(#Adsız_degrade_11);}.cls-5{fill:url(#Adsız_degrade_16);}.cls-5,.cls-6{opacity:.7;}.cls-5,.cls-6,.cls-7,.cls-8{isolation:isolate;}.cls-6{fill:url(#Adsız_degrade_14);}.cls-7{fill:url(#Adsız_degrade_18);}.cls-7,.cls-8{opacity:.8;}.cls-8{fill:url(#Adsız_degrade_17);}</style><linearGradient id="Adsız_degrade_11" x1="-13.13" y1="10.13" x2="56.04" y2="79.3" gradientTransform="translate(0 65.57) scale(1 -1)" gradientUnits="userSpaceOnUse"><stop offset="0" stop-color="#f26f16"/><stop offset=".41" stop-color="#ffa249"/><stop offset=".81" stop-color="#f2a470"/><stop offset="1" stop-color="#f2b58c"/></linearGradient><linearGradient id="Adsız_degrade_12" x1="547.07" y1="1411.39" x2="616.24" y2="1480.56" gradientTransform="translate(-1405.21 -561.81) rotate(90) scale(1 -1)" gradientUnits="userSpaceOnUse"><stop offset="0" stop-color="#f26f16"/><stop offset=".41" stop-color="#ffa249"/><stop offset=".81" stop-color="#f2a470"/><stop offset="1" stop-color="#f2b58c"/></linearGradient><linearGradient id="Adsız_degrade_13" x1="570.36" y1="1392.88" x2="639.52" y2="1462.05" gradientTransform="translate(-1405.21 -561.81) rotate(90) scale(1 -1)" gradientUnits="userSpaceOnUse"><stop offset="0" stop-color="#f26f16"/><stop offset=".41" stop-color="#ffa249"/><stop offset=".81" stop-color="#f2a470"/><stop offset="1" stop-color="#f2b58c"/></linearGradient><linearGradient id="Adsız_degrade_14" x1="178.74" y1="-96" x2="171.19" y2="-104.75" gradientTransform="translate(-133.84 -49.32) rotate(-5.67) scale(.9 -.91) skewX(11.33)" gradientUnits="userSpaceOnUse"><stop offset="0" stop-color="#fff"/><stop offset=".18" stop-color="#fff" stop-opacity=".76"/><stop offset=".44" stop-color="#fff" stop-opacity=".44"/><stop offset=".66" stop-color="#fff" stop-opacity=".2"/><stop offset=".81" stop-color="#fff" stop-opacity=".06"/><stop offset=".9" stop-color="#fff" stop-opacity="0"/></linearGradient><linearGradient id="Adsız_degrade_15" x1="591.25" y1="1413.77" x2="660.41" y2="1482.94" gradientTransform="translate(-1405.21 -561.81) rotate(90) scale(1 -1)" gradientUnits="userSpaceOnUse"><stop offset="0" stop-color="#f26f16"/><stop offset=".41" stop-color="#ffa249"/><stop offset=".81" stop-color="#f2a470"/><stop offset="1" stop-color="#f2b58c"/></linearGradient><linearGradient id="Adsız_degrade_16" x1="204.64" y1="-121.05" x2="197.09" y2="-129.79" gradientTransform="translate(-133.84 -49.32) rotate(-5.67) scale(.9 -.91) skewX(11.33)" gradientUnits="userSpaceOnUse"><stop offset="0" stop-color="#fff"/><stop offset=".18" stop-color="#fff" stop-opacity=".76"/><stop offset=".44" stop-color="#fff" stop-opacity=".44"/><stop offset=".66" stop-color="#fff" stop-opacity=".2"/><stop offset=".81" stop-color="#fff" stop-opacity=".06"/><stop offset=".9" stop-color="#fff" stop-opacity="0"/></linearGradient><linearGradient id="Adsız_degrade_17" x1="225.91" y1="-100.47" x2="218.36" y2="-109.22" gradientTransform="translate(-133.84 -49.32) rotate(-5.67) scale(.9 -.91) skewX(11.33)" gradientUnits="userSpaceOnUse"><stop offset="0" stop-color="#fff"/><stop offset=".18" stop-color="#fff" stop-opacity=".76"/><stop offset=".44" stop-color="#fff" stop-opacity=".44"/><stop offset=".66" stop-color="#fff" stop-opacity=".2"/><stop offset=".81" stop-color="#fff" stop-opacity=".06"/><stop offset=".9" stop-color="#fff" stop-opacity="0"/></linearGradient><linearGradient id="Adsız_degrade_18" x1="200.01" y1="-75.42" x2="192.46" y2="-84.16" gradientTransform="translate(-133.84 -49.32) rotate(-5.67) scale(.9 -.91) skewX(11.33)" gradientUnits="userSpaceOnUse"><stop offset="0" stop-color="#fff"/><stop offset=".18" stop-color="#fff" stop-opacity=".76"/><stop offset=".44" stop-color="#fff" stop-opacity=".44"/><stop offset=".66" stop-color="#fff" stop-opacity=".2"/><stop offset=".81" stop-color="#fff" stop-opacity=".06"/><stop offset=".9" stop-color="#fff" stop-opacity="0"/></linearGradient></defs><path class="cls-4" d="M42.31,10.71c0,5.91-4.79,10.71-10.71,10.71s-10.71-4.79-10.71-10.71S25.68,0,31.6,0s10.71,4.79,10.71,10.71Z"/><path class="cls-3" d="M52.5,42.3c-5.91,0-10.71-4.79-10.71-10.71s4.79-10.71,10.71-10.71,10.71,4.79,10.71,10.71-4.79,10.71-10.71,10.71Z"/><path class="cls-2" d="M10.71,42.3c-5.91,0-10.71-4.79-10.71-10.71s4.79-10.71,10.71-10.71,10.71,4.79,10.71,10.71-4.79,10.71-10.71,10.71Z"/><path class="cls-6" d="M10.47,31.89c-2.34-1.95-2.94-5.1-1.33-7.04s4.82-1.94,7.16,.01c2.34,1.95,2.94,5.1,1.33,7.04s-4.82,1.93-7.16-.01Z"/><path class="cls-1" d="M31.6,63.19c-5.91,0-10.71-4.79-10.71-10.71s4.79-10.71,10.71-10.71,10.71,4.79,10.71,10.71-4.79,10.71-10.71,10.71Z"/><path class="cls-5" d="M31.36,52.78c-2.34-1.95-2.94-5.1-1.33-7.04s4.82-1.94,7.16,.01c2.34,1.95,2.94,5.1,1.33,7.04s-4.82,1.93-7.17-.01h0Z"/><path class="cls-8" d="M52.25,31.89c-2.34-1.95-2.94-5.1-1.33-7.04s4.82-1.94,7.16,.01c2.34,1.95,2.94,5.1,1.33,7.04s-4.82,1.93-7.16-.01Z"/><path class="cls-7" d="M31.36,11c-2.34-1.95-2.94-5.1-1.33-7.04,1.61-1.94,4.82-1.94,7.16,0,2.34,1.95,2.94,5.1,1.33,7.04-1.61,1.94-4.82,1.93-7.17,0h0Z"/></svg>